<svg width="40" height="40" viewBox="0 0 40 40" fill="none" xmlns="http://www.w3.org/2000/svg">
<path fill-rule="evenodd" clip-rule="evenodd" d="M26.2706 1.72559C22.1461 0.758136 17.8538 0.758136 13.7295 1.72559C7.77333 3.1227 3.12272 7.77331 1.72559 13.7294C0.758136 17.8538 0.758136 22.1461 1.72559 26.2706C3.12272 32.2267 7.77333 36.8772 13.7295 38.2744C17.8538 39.2419 22.1461 39.2419 26.2706 38.2744C32.2267 36.8772 36.8772 32.2267 38.2744 26.2706C39.2419 22.1461 39.2419 17.8538 38.2744 13.7295C36.8772 7.77333 32.2267 3.1227 26.2706 1.72559ZM10.9847 14.1713C11.4134 13.6569 12.178 13.5874 12.6924 14.0161L16.8922 17.5158C18.4435 18.8087 18.4435 21.1913 16.8922 22.4839L12.6924 25.9837C12.178 26.4125 11.4134 26.343 10.9847 25.8285C10.556 25.3141 10.6255 24.5494 11.1399 24.1206L15.3397 20.6209C15.7275 20.2976 15.7275 19.7021 15.3397 19.3789L11.1399 15.8791C10.6255 15.4504 10.556 14.6858 10.9847 14.1713ZM21.0104 23.8397C20.3407 23.8397 19.7977 24.3826 19.7977 25.0523C19.7977 25.7219 20.3407 26.2649 21.0104 26.2649H28.0836C28.7533 26.2649 29.2962 25.7219 29.2962 25.0523C29.2962 24.3826 28.7533 23.8397 28.0836 23.8397H21.0104Z" fill="white"/>
</svg>
